<?xml version="1.0" encoding="utf-8"?>
<!-- Generator: Adobe Illustrator 22.1.0, SVG Export Plug-In . SVG Version: 6.00 Build 0)  -->
<svg version="1.1" xmlns="http://www.w3.org/2000/svg" xmlns:xlink="http://www.w3.org/1999/xlink" x="0px" y="0px"
	 viewBox="0 0 612 190.7" enable-background="new 0 0 612 190.7" xml:space="preserve">
<g id="Layer_2">
</g>
<g id="Layer_1">
	<polygon fill="#064F8C" points="89.7,16.2 13.1,168.5 97,97.2 	"/>
	<polygon fill="#249847" points="165.1,173.3 61.6,131.6 12.5,173.3 	"/>
	<polygon fill="#BE2128" points="170.1,171.8 93.2,18.8 104.6,145.4 	"/>
	<g>
		<g>
			<path fill="#172C36" d="M209.3,106c-2.1,9.7-0.9,17.5,3.5,23.5c4.4,5.9,11.2,8.9,20.5,8.9c3.8,0,7.7-0.4,11.6-1.2
				c3.9-0.8,6.9-1.6,8.9-2.5l-2.3,15c-3.3,1-6.8,1.7-10.4,2.2c-3.6,0.5-7.5,0.8-11.5,0.8c-15.5,0-26.7-4-33.7-12
				c-6.9-8-8.8-19.2-5.8-33.8c3.2-14.9,10-26.7,20.6-35.2c10.6-8.6,23.4-12.9,38.5-12.9c4.6,0,8.6,0.4,12.1,1.2
				c3.5,0.8,6.3,1.6,8.6,2.5l-4.7,15.3c-2.3-1.6-5-2.7-8.2-3.5c-3.2-0.8-6.6-1.2-10-1.2c-9.2,0-17.2,3-24.2,9.1
				C215.9,88.3,211.4,96.2,209.3,106z"/>
		</g>
		<g>
			<path fill="#172C36" d="M356.5,60.4h29.1l-19.3,90.8h-17.4l16-75.2l-40.7,75.2h-17.4l-8.6-75.7L282,151.2h-17.4l19.3-90.8H313
				l7,69.2L356.5,60.4z"/>
		</g>
		<g>
			<path fill="#172C36" d="M428.1,140.2c-3.8,4.9-7.8,8.2-11.9,9.9c-4.1,1.7-8,2.6-11.7,2.6c-7,0-12.2-1.9-15.7-5.8
				c-3.4-3.9-4.6-8.6-3.4-14.1c1.6-7.5,5.6-13.3,11.9-17.2c6.3-3.9,14.9-5.9,25.6-5.9h10.7l0.3-1.4c1-4.8,0.4-8.1-1.8-10.1
				c-2.2-2-5.7-2.9-10.5-2.9c-3.6,0-7.5,0.7-11.4,2.1c-4,1.4-7.5,3.2-10.6,5.5l2.7-15.2c2.5-1.2,6.4-2.4,11.5-3.4
				c5.2-1.1,9.6-1.6,13.2-1.6c10.1,0,17,2.3,20.4,6.9c3.5,4.6,4.1,12,2,22.2l-3.8,17.9c-1.3,5.9-2.2,10.9-2.8,15.2
				c-0.6,4.2-0.8,6.3-0.8,6.3h-15.6c-0.2,0-0.1-1.1,0.2-3.2C427,145.9,427.4,143.3,428.1,140.2z M431.2,121.4l0.2-1.2h-7.9
				c-6.5,0.2-11.4,1.2-14.8,3c-3.4,1.8-5.5,4.6-6.3,8.2c-0.6,2.7-0.1,4.8,1.4,6.3c1.5,1.5,4.1,2.3,7.7,2.3c5.1,0,9.4-1.8,12.9-5.5
				C427.8,130.9,430.1,126.5,431.2,121.4z"/>
		</g>
		<g>
			<path fill="#172C36" d="M479.3,53.6h17.3l-12.3,57.7l27-27.2h20.7l-31.5,29.9l20.3,37.1h-22.4l-15.6-33l-7,33h-17.3L479.3,53.6z"
				/>
		</g>
		<g>
			<path fill="#172C36" d="M585,147.4c-3.3,1.6-6.9,2.9-10.7,3.9c-3.8,1-8,1.4-12.4,1.4c-11.6,0-19.9-3-24.8-9.1
				c-4.9-6.1-6.2-14.8-3.7-26.1c2.2-10.5,6.8-18.9,13.8-25.3c7-6.4,15.2-9.6,24.7-9.6c11.3,0,18.6,3.4,22.1,10.3
				c3.5,6.9,3.8,16.9,1,30.2h-46.4c-0.1,4.8,0.6,8.4,2.2,10.9c2.5,4,7.1,6,13.6,6c4.7,0,9.4-0.9,14.1-2.7c4.7-1.8,7.9-3.2,9.6-4.2
				L585,147.4z M550.9,111.1h30c0.8-5,0.3-8.9-1.6-11.6c-1.9-2.7-5-4.1-9.5-4.1c-5,0-9.4,2-13.1,5.9
				C554.6,103.7,552.6,106.9,550.9,111.1z"/>
		</g>
	</g>
	<g id="Layer_2_2_">
	</g>
	<g>
		<polygon fill="#CDCDCE" points="97.4,101.2 64.4,129.2 101.2,144 		"/>
	</g>
</g>
</svg>
